<?xml version="1.0" encoding="UTF-8" standalone="no"?>
<svg
   xmlns:dc="http://purl.org/dc/elements/1.1/"
   xmlns:cc="http://creativecommons.org/ns#"
   xmlns:rdf="http://www.w3.org/1999/02/22-rdf-syntax-ns#"
   xmlns:svg="http://www.w3.org/2000/svg"
   xmlns="http://www.w3.org/2000/svg"
   id="svg8"
   version="1.1"
   viewBox="0 0 67.733332 67.733335"
   height="256"
   width="256">
  <defs
     id="defs2" />
  <metadata
     id="metadata5">
    <rdf:RDF>
      <cc:Work
         rdf:about="">
        <dc:format>image/svg+xml</dc:format>
        <dc:type
           rdf:resource="http://purl.org/dc/dcmitype/StillImage" />
        <dc:title></dc:title>
      </cc:Work>
    </rdf:RDF>
  </metadata>
  <g
     transform="translate(0,-229.26665)"
     id="layer1">
    <circle
       r="33.866665"
       cy="263.13333"
       cx="33.866665"
       id="path3726"
       style="fill:#ffffff;stroke-width:0.38704759" />
    <path
       id="path3724"
       d="m 31.335788,295.11051 c -9.858225,-0.74766 -18.946172,-6.1468 -24.3865249,-14.48804 -2.6687788,-4.0918 -4.3684683,-8.78584 -4.9997391,-13.80781 -0.2294548,-1.82542 -0.1975319,-5.94168 0.060891,-7.84525 0.9416078,-6.93723 3.9358944,-13.14783 8.737997,-18.12394 5.084419,-5.26865 11.633996,-8.57477 18.955614,-9.56846 1.903661,-0.25837 6.020098,-0.29029 7.845605,-0.0608 7.109701,0.89363 13.461472,3.89207 18.500425,8.7334 8.376779,8.04824 11.749813,19.86538 8.886466,31.13297 -0.667408,2.62634 -1.826908,5.51069 -3.139611,7.81002 -6.227801,10.9086 -17.978153,17.16467 -30.461075,16.21796 z m 6.590251,-23.9336 c 8.802941,-4.40112 16.005343,-8.03049 16.005343,-8.06525 0,-0.0618 -31.949842,-16.06728 -32.07332,-16.06728 -0.03447,0 -0.0626,7.23027 -0.0626,16.06728 0,8.83699 0.02822,16.06727 0.0626,16.06727 0.03447,0 7.265045,-3.60091 16.067977,-8.00202 z"
       style="fill:#00aad4;stroke-width:0.12552834" />
  </g>
</svg>
